<svg xmlns="http://www.w3.org/2000/svg" viewBox="0 0 32 32">
  <path d="M16 4C12.698375 4 10 6.6983746 10 10C10 10.992073 10.372526 12.007453 10.865234 13.128906C11.134592 13.74199 11.450368 14.372458 11.783203 15L6.2363281 15L2.6914062 28L29.308594 28L25.763672 15L20.216797 15C20.549632 14.372458 20.865408 13.74199 21.134766 13.128906C21.627474 12.007453 22 10.992073 22 10C22 6.6983746 19.301625 4 16 4 z M 16 6C18.220375 6 20 7.7796254 20 10C20 10.388427 19.747526 11.311828 19.302734 12.324219C18.857943 13.336609 18.248139 14.475809 17.634766 15.533203C16.81857 16.940243 16.45617 17.440987 16 18.126953C15.54383 17.440987 15.18143 16.940243 14.365234 15.533203C13.751861 14.475809 13.142057 13.336609 12.697266 12.324219C12.252474 11.311828 12 10.388427 12 10C12 7.7796254 13.779625 6 16 6 z M 16 8.5 A 1.5 1.5 0 0 0 14.5 10 A 1.5 1.5 0 0 0 16 11.5 A 1.5 1.5 0 0 0 17.5 10 A 1.5 1.5 0 0 0 16 8.5 z M 7.7636719 17L12.912109 17C14.083771 18.974921 15.177734 20.568359 15.177734 20.568359L16 21.759766L16.822266 20.568359C16.822266 20.568359 17.916229 18.974921 19.087891 17L24.236328 17L26.691406 26L5.3085938 26L7.7636719 17 z" fill="#5B5B5B" />
</svg>